<svg width="182" height="54" viewBox="0 0 182 54" fill="none" xmlns="http://www.w3.org/2000/svg">
<rect width="181.957" height="54" rx="5" fill="white"/>
<path d="M22.952 41.256C21.48 41.256 20.4667 40.9467 19.912 40.328C19.3573 39.7093 19.08 38.7173 19.08 37.352V22.728H17.512V18.472H19.08V13.512H24.52V18.472H26.12V22.728H24.52V35.88C24.52 36.2853 24.552 36.584 24.616 36.776C24.68 36.968 24.8507 37.064 25.128 37.064C25.3413 37.064 25.544 37.0533 25.736 37.032C25.928 37.0107 26.056 37 26.12 37V40.84C25.8 40.9253 25.3307 41.0107 24.712 41.096C24.1147 41.2027 23.528 41.256 22.952 41.256ZM27.966 41V13.512H33.438V23.336H36.03V13.512H41.502V41H36.03V28.52H33.438V41H27.966ZM50.3988 41.256C47.9881 41.256 46.2601 40.5947 45.2148 39.272C44.1694 37.9493 43.6468 35.976 43.6468 33.352V23.944C43.6468 21.7893 44.2654 20.1467 45.5028 19.016C46.7401 17.8853 48.4681 17.32 50.6868 17.32C55.1881 17.32 57.4388 19.528 57.4388 23.944V25.64C57.4388 27.3467 57.4174 28.7333 57.3748 29.8H49.2468V34.344C49.2468 35.1547 49.3321 35.7947 49.5028 36.264C49.6734 36.712 50.0361 36.936 50.5908 36.936C51.0174 36.936 51.3161 36.808 51.4868 36.552C51.6788 36.296 51.7854 36.008 51.8068 35.688C51.8494 35.3467 51.8708 34.856 51.8708 34.216V31.944H57.4388V33.288C57.4388 36.0187 56.9054 38.0347 55.8388 39.336C54.7934 40.616 52.9801 41.256 50.3988 41.256ZM51.8708 27.016V24.008C51.8708 22.3227 51.4548 21.48 50.6228 21.48C49.6841 21.48 49.2148 22.3227 49.2148 24.008V27.016H51.8708ZM59.5598 41V13.512H67.9438L70.2478 30.28L72.5518 13.512H80.9998V41H75.9757V21.192L72.8078 41H67.8798L64.5198 21.192V41H59.5598ZM89.9948 41.256C87.7761 41.256 86.0908 40.584 84.9388 39.24C83.7868 37.8747 83.2108 35.9653 83.2108 33.512V20.424C83.2108 18.056 83.7868 16.2747 84.9388 15.08C86.0908 13.864 87.7761 13.256 89.9948 13.256C92.2134 13.256 93.8988 13.864 95.0508 15.08C96.2028 16.2747 96.7788 18.056 96.7788 20.424V33.512C96.7788 35.9867 96.2028 37.896 95.0508 39.24C93.8988 40.584 92.2134 41.256 89.9948 41.256ZM89.9948 36.2C90.4854 36.2 90.8161 35.9867 90.9868 35.56C91.1574 35.1333 91.2428 34.536 91.2428 33.768V20.328C91.2428 19.7307 91.1574 19.2507 90.9868 18.888C90.8374 18.504 90.5174 18.312 90.0268 18.312C89.1094 18.312 88.6508 19.0053 88.6508 20.392V33.8C88.6508 34.5893 88.7468 35.1867 88.9388 35.592C89.1308 35.9973 89.4828 36.2 89.9948 36.2ZM101.525 41L98.1333 13.48H103.381L105.397 32.2L107.189 13.48H112.437L109.045 41H101.525ZM113.741 41V13.512H119.053V41H113.741ZM121.247 41V13.512H132.255V18.824H126.847V24.168H132.031V29.352H126.847V35.656H132.607V41H121.247ZM138.947 41.256C137.581 41.256 136.547 40.936 135.843 40.296C135.16 39.6347 134.701 38.7707 134.467 37.704C134.253 36.616 134.147 35.2293 134.147 33.544L134.211 22.984C134.211 21.32 134.627 19.9653 135.459 18.92C136.312 17.8533 137.507 17.32 139.043 17.32C140.557 17.32 141.688 17.8213 142.435 18.824V13.352H148.035V41H142.435V38.504C142.115 39.4213 141.677 40.1147 141.123 40.584C140.589 41.032 139.864 41.256 138.947 41.256ZM141.091 36.872C141.645 36.872 142.008 36.6053 142.179 36.072C142.349 35.5173 142.435 34.7813 142.435 33.864V32.872V24.072C142.435 23.3893 142.339 22.8133 142.147 22.344C141.955 21.8747 141.613 21.64 141.123 21.64C140.568 21.64 140.195 21.864 140.003 22.312C139.832 22.7387 139.747 23.3253 139.747 24.072V33.928C139.747 35.8907 140.195 36.872 141.091 36.872ZM159.332 41.256C157.796 41.256 156.698 40.3387 156.036 38.504V41H150.276V13.352H156.036V18.696C156.932 17.7787 157.978 17.32 159.172 17.32C160.986 17.32 162.287 17.864 163.076 18.952C163.866 20.0187 164.26 21.5653 164.26 23.592V34.888C164.26 36.808 163.855 38.3547 163.044 39.528C162.234 40.68 160.996 41.256 159.332 41.256ZM157.444 36.904C157.828 36.904 158.095 36.7867 158.244 36.552C158.415 36.296 158.511 35.9867 158.532 35.624C158.575 35.24 158.596 34.6533 158.596 33.864V24.104C158.596 23.272 158.522 22.6533 158.372 22.248C158.223 21.8427 157.903 21.64 157.412 21.64C156.879 21.64 156.516 21.8427 156.324 22.248C156.132 22.6533 156.036 23.2507 156.036 24.04V33.864C156.036 34.888 156.122 35.656 156.292 36.168C156.463 36.6587 156.847 36.904 157.444 36.904Z" fill="#5243B8"/>
</svg>
