<svg width="17" height="17" viewBox="0 0 17 17" fill="none" xmlns="http://www.w3.org/2000/svg">
<path d="M2.38956 2.125C1.65644 2.125 1.0625 2.72 1.0625 3.45312V13.5416C1.0625 14.2747 1.6575 14.8697 2.38956 14.8697H2.92081C3.65394 14.8697 4.24787 14.2747 4.24787 13.5416V3.45206C4.24787 2.71894 3.65287 2.125 2.91975 2.125H2.39062H2.38956ZM6.63637 2.125C5.90325 2.125 5.30825 2.72 5.30825 3.45312V13.5416C5.30825 14.2747 5.90325 14.8697 6.63637 14.8697H7.16762C7.89969 14.8697 8.49363 14.2747 8.49363 13.5416V3.45206C8.49363 2.72 7.89969 2.125 7.16656 2.125H6.63531H6.63637ZM12.7203 5.07556C12.5929 4.75883 12.3483 4.50337 12.0375 4.36228C11.7266 4.2212 11.3733 4.20534 11.0511 4.318L10.4327 4.53475C10.2635 4.59415 10.1081 4.68721 9.97578 4.80831C9.84351 4.92941 9.73714 5.07604 9.66307 5.23936C9.589 5.40269 9.54878 5.57932 9.54483 5.75861C9.54087 5.9379 9.57327 6.11613 9.64006 6.28256L12.7606 14.0431C13.0252 14.7018 13.7594 15.0344 14.4298 14.8006L15.0482 14.5839C15.2175 14.5245 15.3731 14.4314 15.5054 14.3102C15.6378 14.189 15.7442 14.0423 15.8183 13.8789C15.8924 13.7154 15.9326 13.5386 15.9364 13.3592C15.9403 13.1798 15.9078 13.0015 15.8408 12.835L12.7203 5.07556Z" fill="#F5F7F9"/>
</svg>
