<svg width="20" height="20" viewBox="0 0 20 20" fill="none" xmlns="http://www.w3.org/2000/svg">
<path d="M10.6449 1.07367L12.4839 7.082V7.60482H13.0839H18.7314C19.3852 7.60482 19.6409 8.42085 19.1192 8.79558C19.1189 8.79582 19.1185 8.79605 19.1182 8.79629L14.501 12.0688L14.1452 12.321L14.2753 12.7373L16.0901 18.5427L16.0904 18.5435C16.2771 19.1377 15.5736 19.6597 15.0461 19.2587L15.0447 19.2576L10.3617 15.719L10.0006 15.4461L9.6391 15.7183L4.95611 19.2444L4.95388 19.2461C4.42642 19.6471 3.72291 19.1251 3.90963 18.5309L3.90989 18.5301L5.72471 12.7247L5.85485 12.3084L5.49899 12.0562L0.879465 8.78203L0.877702 8.78079C0.366722 8.42138 0.608355 7.59223 1.26859 7.59223H6.91609H7.35903L7.48948 7.16893L9.36775 1.07395L9.36778 1.07396L9.36952 1.06809C9.55193 0.453971 10.4474 0.432139 10.6448 1.07359C10.6448 1.07361 10.6449 1.07364 10.6449 1.07367Z" stroke="black" stroke-width="1.2"/>
</svg>
