<svg width="517" height="298" viewBox="0 0 517 298" fill="none" xmlns="http://www.w3.org/2000/svg">
<g clip-path="url(#clip0)">
<path d="M8.91685 114.44H178.962C181.175 114.44 183.299 115.319 184.864 116.884C186.429 118.449 187.309 120.571 187.309 122.783V136.036H0.56958V122.783C0.569582 120.571 1.44902 118.449 3.01444 116.884C4.57986 115.319 6.70302 114.44 8.91685 114.44Z" fill="#3F3D56"/>
<path d="M175.734 112.898C174.894 112.902 174.06 113.043 173.266 113.318C172.994 112.223 172.33 111.265 171.399 110.626C170.469 109.986 169.336 109.709 168.215 109.848C167.095 109.986 166.063 110.529 165.316 111.375C164.569 112.221 164.157 113.312 164.159 114.44C164.159 114.463 164.165 114.485 164.166 114.508C163.587 114.563 163.016 114.681 162.463 114.86C162.306 114.238 162.022 113.654 161.628 113.147C161.234 112.639 160.739 112.219 160.174 111.913C161.658 111.093 162.831 109.809 163.514 108.259C167.29 108.198 170.333 105.469 170.333 102.1C170.333 98.6926 167.223 95.9302 163.388 95.9302C162.548 95.9339 161.714 96.0758 160.92 96.3502C160.777 95.7435 160.513 95.172 160.144 94.6701C159.774 94.1683 159.307 93.7465 158.77 93.4301C158.232 93.1138 157.637 92.9096 157.018 92.8298C156.4 92.75 155.772 92.7962 155.172 92.9657C154.572 93.1352 154.013 93.4245 153.528 93.816C153.043 94.2076 152.642 94.6933 152.35 95.2438C152.058 95.7944 151.881 96.3984 151.829 97.0194C151.777 97.6404 151.851 98.2655 152.047 98.8569C151.863 98.9852 151.691 99.1293 151.518 99.2727C150.645 98.5218 149.512 98.1446 148.362 98.2228C147.769 96.5193 146.595 95.0789 145.045 94.1538C143.496 93.2288 141.67 92.8782 139.888 93.1634C138.106 93.4487 136.481 94.3516 135.298 95.7139C134.116 97.0762 133.45 98.8112 133.418 100.615C132.799 100.664 132.188 100.786 131.597 100.978C131.531 100.717 131.442 100.462 131.331 100.216C131.94 99.6793 132.43 99.0201 132.768 98.2817C133.106 97.5433 133.285 96.7422 133.293 95.9302C133.293 92.5225 130.184 89.7601 126.349 89.7601C125.508 89.7638 124.675 89.9057 123.881 90.1801C123.738 89.5735 123.474 89.0019 123.105 88.5001C122.735 87.9982 122.268 87.5764 121.73 87.2601C121.193 86.9438 120.597 86.7395 119.979 86.6597C119.361 86.5799 118.733 86.6261 118.133 86.7956C117.533 86.9651 116.973 87.2544 116.488 87.6459C116.003 88.0375 115.603 88.5232 115.311 89.0738C115.019 89.6243 114.841 90.2284 114.789 90.8493C114.737 91.4703 114.812 92.0954 115.008 92.6868C114.036 93.3613 113.233 94.2507 112.661 95.2858C112.089 96.3209 111.764 97.4738 111.71 98.6551C111.645 98.7131 111.57 98.76 111.508 98.8216C111.623 98.3811 111.684 97.928 111.687 97.4727C111.687 94.065 108.578 91.3026 104.742 91.3026C103.902 91.3064 103.068 91.4483 102.274 91.7226C102.132 91.116 101.868 90.5445 101.498 90.0426C101.129 89.5407 100.661 89.1189 100.124 88.8026C99.587 88.4863 98.9913 88.282 98.373 88.2022C97.7546 88.1224 97.1265 88.1686 96.5266 88.3381C95.9266 88.5076 95.3673 88.7969 94.8823 89.1885C94.3972 89.58 93.9966 90.0657 93.7046 90.6163C93.4126 91.1669 93.2352 91.7709 93.1832 92.3918C93.1312 93.0128 93.2057 93.6379 93.402 94.2293C92.3775 94.9369 91.5401 95.8824 90.9617 96.9847C90.3833 98.087 90.0811 99.3131 90.0811 100.558C90.0811 101.802 90.3833 103.029 90.9617 104.131C91.5401 105.233 92.3775 106.179 93.402 106.886C93.0896 107.783 93.0896 108.758 93.402 109.655C92.6287 110.194 91.9597 110.869 91.4276 111.647C91.1419 110.611 90.5022 109.708 89.6195 109.094C88.7368 108.48 87.667 108.195 86.5957 108.287C85.5245 108.38 84.5195 108.845 83.7553 109.601C82.9911 110.357 82.5159 111.356 82.4123 112.426C81.7935 112.064 81.1251 111.794 80.4281 111.625C81.6782 110.8 82.6626 109.631 83.2625 108.259C87.0383 108.198 90.0811 105.469 90.0811 102.1C90.0811 98.6926 86.9718 95.9302 83.1362 95.9302C82.2961 95.9339 81.4622 96.0758 80.6682 96.3502C80.5257 95.7435 80.2618 95.172 79.8922 94.6701C79.5226 94.1683 79.0552 93.7464 78.518 93.4301C77.9808 93.1138 77.3851 92.9096 76.7668 92.8298C76.1484 92.75 75.5203 92.7962 74.9204 92.9657C74.3204 93.1352 73.761 93.4244 73.276 93.816C72.791 94.2075 72.3904 94.6933 72.0984 95.2438C71.8064 95.7944 71.629 96.3984 71.577 97.0194C71.525 97.6404 71.5995 98.2654 71.7958 98.8569C71.6969 98.9257 71.6076 99.0067 71.512 99.0799C71.2713 99.0575 71.0372 99.0152 70.7898 99.0152C69.9497 99.0189 69.1159 99.1608 68.3218 99.4352C68.2926 99.3188 68.2446 99.2109 68.2069 99.0982C68.3563 98.4115 68.3444 97.6995 68.1721 97.0181C67.9998 96.3368 67.6717 95.7047 67.2138 95.1714C66.7558 94.6382 66.1804 94.2183 65.5327 93.9448C64.885 93.6713 64.1827 93.5517 63.4809 93.5952C63.0791 92.4767 62.4238 91.4662 61.5663 90.6428C60.7088 89.8195 59.6724 89.2055 58.5381 88.849C57.4038 88.4924 56.2023 88.403 55.0277 88.5876C53.8531 88.7723 52.7371 89.226 51.767 89.9133C50.797 90.6007 49.9992 91.503 49.4359 92.5497C48.8727 93.5964 48.5594 94.7591 48.5205 95.9469C48.4815 97.1348 48.718 98.3155 49.2115 99.3968C49.7049 100.478 50.442 101.431 51.3649 102.18C50.8339 102.241 50.3104 102.355 49.8022 102.52C49.6197 101.768 49.2498 101.075 48.7269 100.504C48.204 99.9331 47.5451 99.504 46.8115 99.2563C46.078 99.0087 45.2937 98.9506 44.5316 99.0875C43.7696 99.2244 43.0546 99.5518 42.4532 100.039C41.7655 99.2228 40.9049 98.5691 39.9338 98.1252C38.9626 97.6814 37.905 97.4585 36.8372 97.4727C35.9971 97.4764 35.1632 97.6183 34.3692 97.8927C34.2267 97.286 33.9627 96.7145 33.5932 96.2127C33.2236 95.7108 32.7562 95.289 32.219 94.9727C31.6818 94.6564 31.0861 94.4521 30.4677 94.3723C29.8494 94.2925 29.2213 94.3387 28.6214 94.5082C28.0214 94.6777 27.462 94.967 26.977 95.3585C26.492 95.7501 26.0914 96.2358 25.7994 96.7864C25.5074 97.3369 25.33 97.9409 25.278 98.5619C25.226 99.1829 25.3004 99.808 25.4968 100.399C24.4725 101.107 23.6353 102.053 23.0569 103.155C22.4784 104.257 22.1761 105.483 22.1759 106.728C22.1759 106.752 22.1827 106.774 22.1829 106.797C21.0886 106.632 19.9699 106.752 18.9362 107.148C18.7937 106.541 18.5297 105.97 18.1602 105.468C17.7906 104.966 17.3231 104.544 16.786 104.228C16.2488 103.912 15.6531 103.707 15.0347 103.627C14.4164 103.548 13.7883 103.594 13.1884 103.763C12.5884 103.933 12.0291 104.222 11.5441 104.614C11.059 105.005 10.6584 105.491 10.3664 106.042C10.0744 106.592 9.89706 107.196 9.84505 107.817C9.79304 108.438 9.86746 109.063 10.0638 109.655C8.57544 110.662 7.48732 112.158 6.98868 113.884C6.49004 115.61 6.61243 117.456 7.33458 119.101C8.05673 120.746 9.33294 122.086 10.9413 122.888C12.5496 123.69 14.3883 123.903 16.1375 123.491C16.4161 125.1 17.2004 126.579 18.3766 127.712C19.5528 128.846 21.0598 129.576 22.6789 129.796C24.2981 130.015 25.9452 129.714 27.3814 128.935C28.8176 128.156 29.9682 126.94 30.6662 125.463C31.2983 126.8 32.3027 127.926 33.5591 128.707C34.8154 129.488 36.2704 129.889 37.7495 129.864C39.2286 129.84 40.6691 129.389 41.8984 128.566C43.1276 127.744 44.0934 126.584 44.68 125.227C45.5894 125.214 46.4892 125.04 47.3377 124.712C47.8478 126.174 48.7873 127.447 50.0334 128.365C51.2794 129.284 52.7739 129.805 54.3212 129.861C55.8685 129.916 57.3965 129.504 58.7053 128.677C60.0141 127.85 61.0426 126.647 61.6563 125.227C62.7815 125.204 63.8875 124.931 64.8933 124.426C65.5975 125.67 66.6352 126.693 67.8895 127.38C69.1439 128.066 70.5651 128.389 71.9931 128.312C73.4211 128.235 74.7992 127.761 75.9722 126.943C77.1453 126.126 78.0667 124.997 78.6326 123.684C79.0467 123.674 79.4594 123.631 79.8666 123.555C80.444 124.955 81.4213 126.154 82.6763 127.002C83.9314 127.849 85.4085 128.309 86.9233 128.323C88.4381 128.337 89.9234 127.904 91.1936 127.079C92.4639 126.254 93.4628 125.073 94.0656 123.684C94.6717 123.667 95.2737 123.578 95.8589 123.42C97.4099 123.852 99.0587 123.775 100.563 123.201C102.067 122.627 103.347 121.586 104.215 120.23C103.73 122.109 103.972 124.101 104.891 125.809C105.811 127.517 107.341 128.816 109.176 129.447C111.012 130.077 113.018 129.993 114.794 129.211C116.57 128.429 117.985 127.006 118.758 125.227C119.884 125.204 120.99 124.931 121.995 124.426C122.7 125.67 123.737 126.693 124.992 127.38C126.246 128.066 127.667 128.389 129.095 128.312C130.523 128.235 131.901 127.761 133.074 126.943C134.247 126.126 135.169 124.997 135.735 123.684C136.86 123.662 137.966 123.388 138.972 122.884C139.514 123.85 140.261 124.687 141.16 125.336C142.059 125.985 143.089 126.43 144.178 126.641C145.266 126.852 146.388 126.823 147.465 126.557C148.541 126.291 149.547 125.794 150.411 125.1C150.679 126.575 151.374 127.94 152.409 129.026C153.444 130.112 154.774 130.871 156.236 131.21C157.697 131.548 159.226 131.452 160.634 130.932C162.041 130.413 163.266 129.493 164.156 128.286C165.082 128.995 166.158 129.484 167.302 129.714C168.446 129.945 169.628 129.912 170.757 129.617C171.886 129.321 172.932 128.773 173.817 128.012C174.701 127.251 175.4 126.299 175.861 125.227C179.636 125.165 182.679 122.437 182.679 119.068C182.679 115.66 179.57 112.898 175.734 112.898ZM37.7969 109.714C37.7888 109.752 37.7831 109.79 37.7755 109.827C37.7192 109.825 37.6658 109.813 37.6089 109.813C37.3782 109.819 37.1484 109.842 36.9212 109.882C36.9338 109.854 36.9514 109.83 36.9635 109.802C37.2427 109.788 37.5209 109.759 37.7969 109.714ZM102.274 107.148C102.252 107.058 102.213 106.975 102.186 106.888C103.364 106.071 104.293 104.944 104.869 103.631C105.884 103.626 106.886 103.407 107.81 102.989C108.735 102.57 109.561 101.962 110.234 101.203C110.175 101.498 110.145 101.799 110.144 102.1C110.15 102.571 110.229 103.038 110.378 103.484C109.053 104.408 108.05 105.722 107.509 107.243C105.831 106.591 103.975 106.557 102.274 107.148V107.148ZM148.497 107.723C148.494 107.628 148.505 107.531 148.499 107.437C148.696 107.436 148.892 107.423 149.087 107.397C149.387 108.395 149.887 109.322 150.558 110.119C150.412 110.16 150.259 110.185 150.117 110.233C149.867 109.241 149.298 108.359 148.497 107.723Z" fill="#F9A825"/>
<path d="M16.1156 122.153C13.9265 122.153 11.7604 122.599 9.74933 123.463C7.73827 124.327 5.9245 125.592 4.41868 127.18C2.91286 128.768 1.74658 130.646 0.991002 132.7C0.235426 134.753 -0.0936009 136.939 0.0240037 139.124L10.4744 282.756C10.6948 286.872 12.4863 290.748 15.4799 293.584C18.4736 296.42 22.4414 298 26.566 298H161.312C165.437 298 169.405 296.42 172.398 293.584C175.392 290.748 177.184 286.872 177.404 282.756L187.854 139.124C187.972 136.939 187.643 134.753 186.887 132.7C186.132 130.646 184.966 128.768 183.46 127.18C181.954 125.592 180.14 124.327 178.129 123.463C176.118 122.599 173.952 122.153 171.763 122.153H16.1156Z" fill="#3F3D56"/>
<path d="M32.9788 122.153H23.719V298H32.9788V122.153Z" fill="white"/>
<path d="M59.2149 122.153H49.9551V298H59.2149V122.153Z" fill="white"/>
<path d="M85.4512 122.153H76.1914V298H85.4512V122.153Z" fill="white"/>
<path d="M111.687 122.153H102.427V298H111.687V122.153Z" fill="white"/>
<path d="M137.923 122.153H128.664V298H137.923V122.153Z" fill="white"/>
<path d="M164.159 122.153H154.899V298H164.159V122.153Z" fill="white"/>
<path d="M315.231 50.0623L311.194 40.2354L257.372 62.3206C256.154 62.8214 255.111 63.6728 254.378 64.7667C253.644 65.8606 253.252 67.1478 253.252 68.4647V126.586H263.883V71.1464L315.231 50.0623Z" fill="#3F3D56"/>
<path d="M308.314 29.5563H296.724V66.2478H308.314V29.5563Z" fill="white"/>
<path d="M289.962 37.2795H278.372V73.9711H289.962V37.2795Z" fill="white"/>
<path d="M272.087 68.6615L263.877 71.0751L260.496 31.97H272.087V68.6615Z" fill="white"/>
<path d="M278.849 73.0057H242.138V84.5907H278.849V73.0057Z" fill="white"/>
<path d="M278.854 88.9409H242.144V100.526H278.854V88.9409Z" fill="white"/>
<path d="M278.849 104.876H242.138V116.461H278.849V104.876Z" fill="white"/>
<path d="M296.723 298H225.718L208.326 124.185H312.184L296.723 298Z" fill="#3F3D56"/>
<path d="M319.911 121.288H201.082V132.873H319.911V121.288Z" fill="#3F3D56"/>
<path d="M440.804 79.9445C462.86 79.9445 480.74 62.0737 480.74 40.029C480.74 17.9842 462.86 0.113403 440.804 0.113403C418.748 0.113403 400.868 17.9842 400.868 40.029C400.868 62.0737 418.748 79.9445 440.804 79.9445Z" fill="#3AD29F"/>
<path d="M467.246 40.0288L427.275 59.6588V40.0288V20.3988L467.246 40.0288Z" fill="url(#paint0_linear)"/>
<path d="M464.844 40.0288L429.672 57.3049V40.0288V22.7527L464.844 40.0288Z" fill="white"/>
<path opacity="0.2" d="M404.135 44.6116C404.142 36.3969 406.683 28.3842 411.413 21.6661C416.142 14.9479 422.83 9.85135 430.564 7.07138C438.298 4.29141 446.701 3.96334 454.629 6.13191C462.556 8.30049 469.621 12.8602 474.861 19.1891C472.007 14.4976 468.215 10.4448 463.723 7.28417C459.231 4.12351 454.135 1.92287 448.753 0.819779C443.371 -0.28331 437.82 -0.265134 432.446 0.873165C427.072 2.01146 421.99 4.24542 417.519 7.43542C413.048 10.6254 409.283 14.7029 406.459 19.413C403.636 24.1232 401.815 29.3647 401.11 34.8101C400.405 40.2555 400.832 45.7876 402.363 51.0609C403.894 56.3341 406.496 61.235 410.008 65.4573C406.157 59.1865 404.124 51.9697 404.135 44.6116Z" fill="white"/>
<path d="M433.79 247.198C433.324 247.198 432.878 247.383 432.548 247.712C432.219 248.041 432.034 248.487 432.033 248.952V296.246C432.034 296.711 432.219 297.157 432.548 297.486C432.878 297.815 433.324 298 433.79 298H515.243C515.709 298 516.155 297.815 516.485 297.486C516.814 297.157 516.999 296.711 517 296.246V248.952C516.999 248.487 516.814 248.041 516.485 247.712C516.155 247.383 515.709 247.198 515.243 247.198H433.79Z" fill="#3F3D56"/>
<path d="M442.892 251.369C442.025 251.37 441.193 251.715 440.579 252.328C439.966 252.941 439.621 253.772 439.62 254.639V290.559C439.621 291.426 439.966 292.257 440.579 292.87C441.193 293.483 442.025 293.828 442.892 293.829H506.141C507.008 293.828 507.84 293.483 508.453 292.87C509.067 292.257 509.412 291.426 509.413 290.559V254.639C509.412 253.772 509.067 252.941 508.453 252.328C507.84 251.715 507.008 251.37 506.141 251.369L442.892 251.369Z" fill="#FF6584"/>
<path d="M434.705 262.776H392.276V272.599H434.705V262.776Z" fill="#3F3D56"/>
<path d="M318.445 247.198C317.98 247.199 317.534 247.384 317.205 247.713C316.876 248.042 316.69 248.487 316.69 248.952V296.246C316.69 296.711 316.876 297.156 317.205 297.485C317.534 297.814 317.98 297.999 318.445 298H399.9C400.366 297.999 400.812 297.814 401.141 297.485C401.47 297.156 401.655 296.711 401.656 296.246V248.952C401.655 248.487 401.47 248.042 401.141 247.713C400.812 247.384 400.366 247.199 399.9 247.198H318.445Z" fill="#3F3D56"/>
<path d="M327.549 251.369C326.681 251.369 325.849 251.714 325.236 252.327C324.622 252.94 324.276 253.772 324.275 254.639V290.559C324.276 291.426 324.622 292.258 325.236 292.871C325.849 293.484 326.681 293.829 327.549 293.829H390.796C391.664 293.829 392.496 293.484 393.11 292.871C393.723 292.258 394.069 291.426 394.07 290.559V254.639C394.069 253.772 393.723 252.94 393.11 252.327C392.496 251.714 391.664 251.369 390.796 251.369L327.549 251.369Z" fill="white"/>
</g>
<defs>
<linearGradient id="paint0_linear" x1="447.261" y1="59.659" x2="447.261" y2="20.3989" gradientUnits="userSpaceOnUse">
<stop stop-opacity="0.12"/>
<stop offset="0.55" stop-opacity="0.09"/>
<stop offset="1" stop-opacity="0.02"/>
</linearGradient>
<clipPath id="clip0">
<rect width="517" height="298" fill="white"/>
</clipPath>
</defs>
</svg>
